<svg width="20" height="20" viewBox="0 0 20 20" fill="none" xmlns="http://www.w3.org/2000/svg">
<path d="M7.97495 15.6834C7.81662 15.6834 7.65829 15.6251 7.53329 15.5001L2.47495 10.4418C2.23328 10.2001 2.23328 9.8001 2.47495 9.55843L7.53329 4.5001C7.77495 4.25843 8.17495 4.25843 8.41662 4.5001C8.65829 4.74176 8.65829 5.14176 8.41662 5.38343L3.79995 10.0001L8.41662 14.6168C8.65829 14.8584 8.65829 15.2584 8.41662 15.5001C8.29995 15.6251 8.13328 15.6834 7.97495 15.6834Z" fill="#6A6A6A"/>
<path d="M17.0834 10.625H3.05835C2.71668 10.625 2.43335 10.3417 2.43335 10C2.43335 9.65833 2.71668 9.375 3.05835 9.375H17.0834C17.425 9.375 17.7084 9.65833 17.7084 10C17.7084 10.3417 17.425 10.625 17.0834 10.625Z" fill="#6A6A6A"/>
</svg>
